<svg viewBox="0 0 512 512" xmlns="http://www.w3.org/2000/svg"><path d="m467 211c-19.554688 0-36.226562 12.542969-42.421875 30h-34.417969c-2.886718-26-13.183594-49.792969-28.730468-69.214844l23.675781-23.675781c16.734375 7.972656 37.375 5.050781 51.207031-8.78125 17.542969-17.546875 17.542969-46.09375 0-63.640625-17.542969-17.542969-46.09375-17.546875-63.640625 0-13.828125 13.828125-16.746094 34.484375-8.78125 51.207031l-23.675781 23.675781c-19.421875-15.546874-43.214844-25.84375-69.214844-28.730468v-34.417969c17.460938-6.195313 30-22.867187 30-42.421875 0-24.8125-20.1875-45-45-45s-45 20.1875-45 45c0 19.554688 12.539062 36.226562 30 42.421875v34.417969c-26 2.886718-49.792969 13.183594-69.214844 28.730468l-23.675781-23.671874c7.964844-16.726563 5.042969-37.382813-8.78125-51.210938-17.546875-17.542969-46.09375-17.542969-63.640625 0-17.542969 17.546875-17.542969 46.09375 0 63.640625 8.773438 8.773437 20.296875 13.160156 31.820312 13.160156 6.636719 0 13.273438-1.464843 19.386719-4.378906l23.675781 23.675781c-15.546874 19.421875-25.84375 43.214844-28.730468 69.214844h-34.417969c-6.195313-17.457031-22.867187-30-42.421875-30-24.8125 0-45 20.1875-45 45s20.1875 45 45 45c19.554688 0 36.226562-12.542969 42.421875-30h34.417969c2.886718 26 13.183594 49.792969 28.730468 69.214844l-23.675781 23.675781c-16.722656-7.96875-37.378906-5.046875-51.207031 8.78125-17.542969 17.546875-17.542969 46.09375 0 63.640625 17.542969 17.542969 46.09375 17.542969 63.640625 0 13.828125-13.828125 16.746094-34.488281 8.78125-51.210938l23.675781-23.671874c19.964844 15.980468 43.875 25.917968 69.214844 28.730468v34.417969c-17.460938 6.195313-30 22.867187-30 42.421875 0 24.8125 20.1875 45 45 45s45-20.1875 45-45c0-19.554688-12.539062-36.226562-30-42.421875v-34.417969c25.371094-2.816406 49.277344-12.769531 69.214844-28.730468l23.675781 23.671874c-7.964844 16.726563-5.042969 37.382813 8.78125 51.210938 17.546875 17.542969 46.09375 17.546875 63.640625 0 17.542969-17.546875 17.542969-46.09375 0-63.640625-13.828125-13.824219-34.484375-16.75-51.207031-8.78125l-23.675781-23.671875c15.546874-19.425781 25.84375-43.21875 28.730468-69.21875h34.417969c6.195313 17.457031 22.867187 30 42.421875 30 24.8125 0 45-20.1875 45-45s-20.1875-45-45-45zm-73.113281-114.097656c5.859375-5.863282 15.351562-5.867188 21.210937 0 5.851563 5.847656 5.851563 15.363281.003906 21.210937-5.851562 5.851563-15.367187 5.851563-21.214843 0-5.863281-5.863281-5.863281-15.347656 0-21.210937zm-275.773438 21.210937c-5.847656 5.851563-15.367187 5.847657-21.210937 0-5.851563-5.847656-5.851563-15.363281-.003906-21.214843 5.863281-5.859376 15.351562-5.863282 21.214843 0 5.863281 5.867187 5.863281 15.351562 0 21.214843zm-73.113281 152.886719c-8.269531 0-15-6.730469-15-15s6.730469-15 15-15 15 6.730469 15 15-6.730469 15-15 15zm73.113281 144.097656c-5.859375 5.863282-15.351562 5.867188-21.210937 0-5.851563-5.847656-5.851563-15.363281 0-21.210937h-.003906c5.851562-5.851563 15.367187-5.847657 21.214843 0 5.863281 5.863281 5.863281 15.347656 0 21.210937zm137.886719-385.097656c8.269531 0 15 6.730469 15 15s-6.730469 15-15 15-15-6.730469-15-15 6.730469-15 15-15zm0 452c-8.269531 0-15-6.730469-15-15s6.730469-15 15-15 15 6.730469 15 15-6.730469 15-15 15zm45-131.144531c-13.644531 6.5-28.90625 10.144531-45 10.144531s-31.355469-3.644531-45-10.144531v-4.855469c0-24.8125 20.1875-45 45-45s45 20.1875 45 45zm-75-109.855469c0-16.542969 13.457031-30 30-30s30 13.457031 30 30-13.457031 30-30 30-30-13.457031-30-30zm103.476562 89.929688c-3.992187-19.507813-15.585937-36.277344-31.535156-47.078126 11.132813-10.898437 18.058594-26.078124 18.058594-42.851562 0-33.085938-26.914062-60-60-60s-60 26.914062-60 60c0 16.773438 6.925781 31.953125 18.058594 42.851562-15.949219 10.800782-27.542969 27.570313-31.535156 47.078126-19.441407-19.070313-31.523438-45.613282-31.523438-74.929688 0-57.898438 47.101562-105 105-105s105 47.101562 105 105c0 29.316406-12.082031 55.859375-31.523438 74.929688zm64.410157 62.957031c5.847656-5.847657 15.363281-5.851563 21.210937 0 5.851563 5.847656 5.851563 15.363281.003906 21.214843-5.863281 5.859376-15.351562 5.863282-21.214843 0-5.863281-5.867187-5.863281-15.351562 0-21.214843zm73.113281-122.886719c-8.269531 0-15-6.730469-15-15s6.730469-15 15-15 15 6.730469 15 15-6.730469 15-15 15zm0 0"/></svg>