<svg viewBox="0 0 512 512" xmlns="http://www.w3.org/2000/svg"><path d="m60 225v79.5625c0 4.867188 2.363281 9.433594 6.339844 12.246094 3.976562 2.808594 9.066406 3.515625 13.660156 1.894531 3.195312-1.128906 6.5625-1.703125 10-1.703125 16.542969 0 30 13.457031 30 30s-13.457031 30-30 30c-3.4375 0-6.804688-.574219-10-1.703125-4.589844-1.621094-9.683594-.917969-13.660156 1.894531-3.976563 2.8125-6.339844 7.378906-6.339844 12.246094v47.5625c0 8.285156 6.714844 15 15 15h30c0 33.085938 26.914062 60 60 60s60-26.914062 60-60h79.5625c4.867188 0 9.433594-2.363281 12.246094-6.339844 2.808594-3.972656 3.519531-9.066406 1.894531-13.65625-1.128906-3.199218-1.703125-6.566406-1.703125-10.003906 0-16.542969 13.457031-30 30-30s30 13.457031 30 30c0 3.4375-.574219 6.804688-1.703125 10-1.621094 4.59375-.914063 9.683594 1.894531 13.660156 2.8125 3.976563 7.378906 6.339844 12.246094 6.339844h47.5625c8.285156 0 15-6.714844 15-15v-30c33.085938 0 60-26.914062 60-60s-26.914062-60-60-60c0-17.632812 0-61.59375 0-79.5625 0-4.867188-2.363281-9.433594-6.339844-12.246094-3.976562-2.8125-9.066406-3.519531-13.660156-1.894531-3.195312 1.128906-6.5625 1.703125-10 1.703125-16.542969 0-30-13.457031-30-30s13.457031-30 30-30c3.4375 0 6.804688.574219 10 1.703125 4.589844 1.621094 9.683594.917969 13.660156-1.894531 3.976563-2.8125 6.339844-7.378906 6.339844-12.25v-47.558594c0-8.285156-6.714844-15-15-15h-30c0-33.085938-26.914062-60-60-60s-60 26.914062-60 60c-17.632812 0-61.59375 0-79.5625 0-4.867188 0-9.433594 2.363281-12.246094 6.339844-2.808594 3.972656-3.519531 9.066406-1.894531 13.65625 1.128906 3.199218 1.703125 6.566406 1.703125 10.003906 0 16.542969-13.457031 30-30 30s-30-13.457031-30-30c0-3.4375.574219-6.804688 1.703125-10 1.621094-4.59375.914063-9.683594-1.894531-13.660156-2.8125-3.976563-7.378906-6.339844-12.246094-6.339844h-47.5625c-8.285156 0-15 6.714844-15 15v30c-33.085938 0-60 26.914062-60 60s26.914062 60 60 60zm211-135h33.5625c4.867188 0 9.433594-2.363281 12.246094-6.339844 2.808594-3.972656 3.519531-9.066406 1.894531-13.65625-1.128906-3.199218-1.703125-6.566406-1.703125-10.003906 0-16.542969 13.457031-30 30-30s30 13.457031 30 30c0 3.4375-.574219 6.804688-1.703125 10-1.621094 4.59375-.914063 9.683594 1.894531 13.660156 2.8125 3.976563 7.378906 6.339844 12.246094 6.339844h32.5625v15c-33.085938 0-60 26.914062-60 60s26.914062 60 60 60v16h-151zm0 181h151v33.5625c0 4.867188 2.363281 9.433594 6.339844 12.246094 3.976562 2.808594 9.066406 3.515625 13.660156 1.894531 3.195312-1.128906 6.5625-1.703125 10-1.703125 16.542969 0 30 13.460938 30 30 0 16.542969-13.457031 30-30 30-3.4375 0-6.804688-.570312-10-1.703125-4.589844-1.621094-9.683594-.914063-13.660156 1.898437-3.976563 2.8125-6.339844 7.375-6.339844 12.246094v32.558594h-15c0-33.085938-26.914062-60-60-60s-60 26.914062-60 60h-16zm-30 151h-33.5625c-4.867188 0-9.433594 2.363281-12.246094 6.339844-2.808594 3.972656-3.519531 9.066406-1.894531 13.65625 1.128906 3.199218 1.703125 6.566406 1.703125 10.003906 0 16.539062-13.460938 30-30 30-16.542969 0-30-13.460938-30-30 0-3.441406.570312-6.804688 1.703125-10.003906 1.621094-4.589844.914063-9.683594-1.898437-13.65625-2.8125-3.976563-7.375-6.339844-12.242188-6.339844h-32.5625v-15c33.085938 0 60-26.914062 60-60s-26.914062-60-60-60v-16h151zm-181-287c3.4375 0 6.804688.574219 10 1.703125 4.589844 1.621094 9.683594.917969 13.660156-1.894531 3.976563-2.8125 6.339844-7.378906 6.339844-12.246094v-32.5625h15c0 33.085938 26.914062 60 60 60s60-26.914062 60-60h16v151h-151v-33.5625c0-4.867188-2.363281-9.433594-6.339844-12.246094-3.976562-2.8125-9.066406-3.519531-13.660156-1.894531-3.195312 1.128906-6.5625 1.703125-10 1.703125-16.542969 0-30-13.457031-30-30s13.457031-30 30-30zm0 0"/></svg>