<?xml version="1.0" standalone="no"?>
<!DOCTYPE svg PUBLIC "-//W3C//DTD SVG 20010904//EN"
 "http://www.w3.org/TR/2001/REC-SVG-20010904/DTD/svg10.dtd">
<svg version="1.0" xmlns="http://www.w3.org/2000/svg"
 width="1000.000000pt" height="1000.000000pt" viewBox="0 0 1000.000000 1000.000000"
 preserveAspectRatio="xMidYMid meet">
<metadata>
Created by potrace 1.15, written by Peter Selinger 2001-2017
</metadata>
<g transform="translate(0.000000,1000.000000) scale(0.100000,-0.100000)"
fill="#000000" stroke="none">
<path d="M4845 8663 c-162 -5 -366 -24 -414 -39 -62 -18 -71 -40 -71 -173 0
-111 -6 -138 -29 -146 -9 -2 -93 -11 -187 -20 -190 -16 -367 -49 -519 -96
-111 -34 -322 -121 -372 -153 -66 -43 -69 -75 -28 -292 88 -467 183 -756 282
-862 l40 -43 7 -272 c10 -414 24 -1486 31 -2324 l7 -753 -22 0 c-12 0 -72 12
-133 27 -209 50 -396 33 -513 -48 -45 -31 -121 -127 -130 -166 l-6 -23 -375 0
c-297 0 -373 3 -367 13 5 6 37 50 73 97 95 126 127 205 141 360 10 108 -5 443
-21 493 -41 125 -203 213 -470 257 -281 46 -450 35 -604 -39 -156 -74 -355
-249 -431 -377 -258 -438 -313 -1256 -113 -1701 121 -269 365 -457 669 -514
49 -10 260 -12 850 -10 l785 3 19 -51 c37 -102 161 -195 314 -234 48 -12 56
-18 82 -64 37 -65 78 -90 173 -105 90 -14 175 -2 277 38 l68 26 41 -45 c60
-64 126 -91 226 -92 71 0 88 4 147 33 80 39 124 86 239 253 46 66 89 127 94
134 8 10 330 14 1666 19 l1655 7 89 -90 c128 -131 253 -191 398 -191 95 0 144
17 193 66 l41 41 79 -40 c88 -44 175 -58 237 -38 34 11 83 58 117 109 l15 23
70 -22 c101 -31 157 -24 205 28 61 64 85 152 85 303 0 143 -15 208 -67 286
-48 72 -109 100 -237 109 -56 4 -99 11 -96 15 3 5 42 34 86 65 199 139 298
296 345 541 19 105 15 275 -11 369 -65 240 -323 498 -545 546 -120 26 -322
-12 -428 -80 -66 -42 -94 -74 -141 -160 -46 -86 -40 -94 -71 100 -48 304 -78
579 -65 579 3 0 60 -22 128 -50 164 -66 223 -81 342 -87 116 -6 199 7 272 43
104 50 124 143 66 300 l-31 81 37 17 c116 55 156 113 156 226 -1 125 -54 214
-155 259 -49 22 -151 41 -217 41 -24 0 -43 3 -43 6 0 3 44 49 98 102 108 106
156 174 196 271 29 72 56 191 56 249 0 163 -103 346 -281 501 -155 135 -384
291 -525 358 -101 48 -269 72 -753 108 -112 8 -206 17 -208 19 -3 2 -18 56
-33 118 -54 210 -152 419 -315 663 -339 510 -794 919 -1143 1029 -201 63 -541
86 -1027 69z m515 -163 c144 -7 459 -54 447 -67 -2 -2 -60 -10 -128 -18 -68
-8 -146 -22 -174 -31 -153 -52 -262 -185 -329 -404 -14 -47 -30 -91 -35 -99
-7 -11 -25 0 -85 56 -226 211 -558 258 -840 118 -158 -78 -285 -204 -356 -350
-56 -115 -73 -190 -73 -320 0 -138 19 -217 85 -355 44 -92 61 -115 142 -195
142 -142 297 -212 491 -222 208 -12 407 59 560 198 71 66 116 128 171 238 24
50 47 91 50 91 10 0 112 -55 171 -92 l61 -39 7 -85 c9 -99 3 -139 -32 -252
-31 -99 -28 -152 12 -191 38 -39 111 -35 207 11 100 48 138 81 138 122 0 26
-14 46 -82 116 -111 114 -241 270 -226 270 7 0 50 -5 96 -12 231 -32 590 66
717 196 142 146 194 398 136 669 -12 60 -20 111 -17 114 8 9 103 -94 214 -232
283 -354 461 -695 506 -970 18 -115 21 -121 58 -134 16 -6 148 -20 291 -31
144 -11 348 -29 452 -40 l190 -19 100 -50 c128 -63 348 -210 448 -299 161
-142 218 -240 225 -382 7 -157 -53 -278 -213 -430 -173 -165 -222 -217 -245
-265 -19 -40 -21 -50 -10 -75 20 -48 64 -56 233 -42 143 11 215 6 255 -19 30
-19 52 -63 52 -106 0 -94 -53 -113 -319 -113 -210 0 -234 -5 -260 -51 -20 -36
-7 -75 32 -96 26 -14 63 -18 190 -21 l158 -4 26 -51 c29 -57 35 -116 14 -141
-67 -80 -401 -13 -631 127 -51 31 -79 41 -130 46 -77 8 -98 18 -134 66 -61 79
-99 211 -116 397 -18 200 2 334 90 614 46 145 51 211 19 240 -19 17 -39 19
-239 19 -204 0 -219 -1 -240 -20 -38 -35 -24 -101 73 -345 121 -306 127 -325
127 -426 0 -350 139 -650 320 -694 58 -14 49 19 121 -410 61 -365 101 -559
140 -691 36 -122 61 -173 95 -195 23 -16 26 -16 39 2 21 29 43 125 60 261 20
159 43 220 102 273 99 87 295 109 418 47 65 -32 160 -113 213 -180 109 -140
136 -214 135 -382 0 -101 -4 -134 -27 -210 -64 -211 -165 -316 -481 -499 -181
-105 -217 -137 -213 -185 2 -23 12 -40 30 -54 27 -20 33 -20 210 -9 245 16
332 16 368 -3 64 -33 95 -161 71 -286 -16 -81 -40 -129 -63 -129 -44 0 -129
56 -248 164 -136 123 -185 142 -235 91 -46 -45 -34 -71 91 -190 52 -49 94 -98
94 -107 0 -32 -30 -51 -72 -45 -66 9 -147 66 -282 200 -140 139 -165 151 -213
105 -39 -36 -32 -84 22 -147 49 -58 68 -90 79 -134 6 -23 3 -29 -21 -38 -94
-36 -273 67 -414 239 l-27 32 -1722 0 c-1165 0 -1728 -3 -1741 -10 -10 -6 -29
-30 -40 -53 -12 -23 -40 -64 -63 -92 -23 -27 -63 -80 -89 -116 -65 -92 -135
-155 -188 -169 -37 -10 -50 -9 -88 7 -26 10 -52 30 -60 45 -14 24 -12 31 32
123 56 116 65 160 43 203 -12 23 -25 33 -51 38 -56 10 -80 -13 -140 -139 -48
-99 -60 -116 -102 -144 -80 -53 -188 -76 -247 -53 -38 14 -34 54 19 176 25 56
45 115 45 129 0 36 -42 75 -81 75 -43 0 -84 -45 -134 -148 -45 -94 -48 -95
-142 -61 -74 28 -148 99 -158 152 -14 74 18 152 77 184 50 27 211 24 364 -6
139 -28 175 -22 193 29 21 62 7 77 -180 196 -96 62 -218 140 -272 175 -174
112 -323 269 -369 391 -22 58 -26 175 -9 248 27 118 81 199 160 238 50 24 66
27 156 26 107 -1 164 -12 351 -69 138 -42 157 -39 174 24 8 29 8 339 1 1093
-19 1927 -28 2458 -46 2501 -4 10 -27 31 -51 48 -64 44 -113 151 -169 374 -42
164 -95 413 -109 511 l-6 41 98 45 c239 111 465 159 879 184 61 3 122 12 135
18 34 17 47 68 48 191 0 61 4 115 8 122 19 30 516 50 832 33z m695 -240 c95
-47 199 -152 243 -244 48 -99 72 -204 79 -336 12 -251 -68 -403 -253 -480
-143 -59 -214 -73 -379 -74 l-150 -1 -140 80 -140 80 -7 110 c-4 60 -17 145
-28 189 -26 105 -25 183 4 299 80 314 228 419 581 414 115 -2 123 -4 190 -37z
m-1377 -276 c122 -24 213 -75 308 -169 127 -127 188 -270 188 -445 0 -109 -16
-174 -67 -279 -59 -121 -154 -215 -279 -275 -51 -24 -117 -49 -146 -55 -76
-16 -218 -14 -287 4 -195 49 -368 208 -435 397 -63 180 -44 375 52 535 52 86
162 184 259 232 139 67 264 84 407 55z m-2943 -3644 c209 -36 308 -80 344
-153 19 -39 21 -61 21 -228 0 -122 -5 -207 -15 -254 -31 -150 -143 -314 -272
-400 -32 -22 -68 -48 -80 -59 -32 -27 -30 -76 3 -107 l26 -24 477 -3 478 -3 7
-107 c8 -128 23 -189 67 -272 41 -77 207 -253 298 -317 110 -77 171 -125 171
-134 0 -5 -13 -9 -28 -9 -43 0 -131 -29 -173 -57 -44 -29 -89 -91 -109 -152
l-13 -41 -763 0 c-487 0 -790 4 -839 11 -171 23 -285 80 -406 199 -90 89 -147
182 -188 305 -56 167 -66 251 -66 550 0 239 3 285 23 399 74 407 206 632 463
788 158 96 304 113 574 68z"/>
<path d="M6147 6786 c-64 -23 -115 -63 -259 -203 -167 -162 -231 -199 -327
-190 -76 6 -145 43 -257 133 -135 109 -207 134 -287 100 -100 -42 -107 -151
-18 -283 73 -108 94 -170 89 -268 -4 -70 -10 -92 -46 -165 -22 -47 -82 -150
-133 -230 -138 -217 -226 -367 -233 -396 -16 -63 57 -98 107 -51 53 49 350
542 407 675 75 178 57 310 -69 497 -42 62 -51 95 -27 95 8 0 63 -36 122 -80
128 -96 191 -133 263 -154 160 -47 273 3 505 223 69 66 144 131 168 145 55 32
112 41 166 26 38 -10 42 -14 36 -33 -26 -89 -134 -233 -312 -418 -148 -154
-167 -195 -116 -246 25 -25 28 -26 112 -18 179 17 222 6 222 -57 0 -69 -53
-122 -180 -180 -99 -46 -130 -71 -130 -108 0 -65 65 -76 170 -30 88 39 137 40
150 4 13 -32 13 -85 0 -118 -14 -37 -49 -56 -144 -76 -219 -48 -266 -126 -281
-470 -17 -404 -56 -602 -155 -800 -80 -160 -190 -272 -330 -339 -73 -35 -78
-36 -190 -35 -94 1 -131 6 -205 28 -174 52 -351 147 -442 235 -152 148 -289
403 -377 701 -32 109 -47 130 -91 130 -47 0 -70 -34 -62 -94 9 -64 101 -313
162 -441 133 -277 282 -440 502 -553 373 -190 638 -196 886 -18 154 109 250
245 325 457 66 188 112 470 112 694 1 206 21 293 80 336 14 11 68 28 120 40
52 11 114 31 137 45 107 62 136 283 50 380 l-30 34 29 63 c75 162 1 298 -173
315 l-67 7 74 84 c140 157 200 236 243 320 36 73 42 93 42 149 0 60 -2 65 -36
97 -57 52 -212 73 -302 41z"/>
<path d="M5798 8224 c-57 -30 -65 -98 -19 -145 33 -33 75 -38 120 -14 50 25
57 94 15 144 -29 35 -70 40 -116 15z"/>
<path d="M4680 7903 c-50 -18 -76 -70 -60 -119 23 -70 108 -88 161 -35 30 31
35 53 20 94 -21 53 -71 78 -121 60z"/>
</g>
</svg>
